# xmcd
# Copyright (C) 1995-1998 Ti Kan
#
# Track frame offsets:
#       150
#       15940
#       32676
#       47907
#       62684
#       79754
#       97999
#       112361
#       130191
#       145680
#       165913
#       181219
#
# Disc length: 2652 seconds
#
# Revision: 0
# Processed by: cddbd v1.5.1PL0 Copyright (c) Steve Scherf et al.
# Submitted via: CD-Transfer v1.0
#
DISCID=920a5a0c
DTITLE=Made In Mind - Are You Okay?
DYEAR=2005
DGENRE=
TTITLE0=Soup-Bubbles
TTITLE1=Gorgeous
TTITLE2=Not The Time To Talk
TTITLE3=Stupid
TTITLE4=It Makes Me Happy
TTITLE5=Waiting
TTITLE6=Amor
TTITLE7=Heavenly Tiles
TTITLE8=Way Home
TTITLE9=Are You Okay?
TTITLE10=Show Me The Way
TTITLE11=The Last Song
EXTD=
EXTT0=
EXTT1=
EXTT2=
EXTT3=
EXTT4=
EXTT5=
EXTT6=
EXTT7=
EXTT8=
EXTT9=
EXTT10=
EXTT11=
PLAYORDER=
